<svg width="192" height="131" viewBox="0 0 192 131" fill="none" xmlns="http://www.w3.org/2000/svg">
<g filter="url(#filter0_d_116_379)">
<rect x="41" y="36" width="110" height="49" rx="24.5" fill="white"/>
<rect x="40.75" y="35.75" width="110.5" height="49.5" rx="24.75" stroke="#B6ACAC" stroke-width="0.5"/>
<path d="M62.302 64.21H56.83L55.822 67H54.094L58.63 54.526H60.52L65.038 67H63.31L62.302 64.21ZM61.834 62.878L59.566 56.542L57.298 62.878H61.834ZM72.5229 67L68.6529 62.644V67H67.0149V53.68H68.6529V61.51L72.4509 57.136H74.7369L70.0929 62.05L74.7549 67H72.5229ZM89.4186 57.136L86.3406 67H84.6486L82.2726 59.17L79.8966 67H78.2046L75.1086 57.136H76.7826L79.0506 65.416L81.4986 57.136H83.1726L85.5666 65.434L87.7986 57.136H89.4186ZM90.4322 62.032C90.4322 61.024 90.6362 60.142 91.0442 59.386C91.4522 58.618 92.0102 58.024 92.7182 57.604C93.4382 57.184 94.2362 56.974 95.1122 56.974C95.9762 56.974 96.7262 57.16 97.3622 57.532C97.9982 57.904 98.4722 58.372 98.7842 58.936V57.136H100.44V67H98.7842V65.164C98.4602 65.74 97.9742 66.22 97.3262 66.604C96.6902 66.976 95.9462 67.162 95.0942 67.162C94.2182 67.162 93.4262 66.946 92.7182 66.514C92.0102 66.082 91.4522 65.476 91.0442 64.696C90.6362 63.916 90.4322 63.028 90.4322 62.032ZM98.7842 62.05C98.7842 61.306 98.6342 60.658 98.3342 60.106C98.0342 59.554 97.6262 59.134 97.1102 58.846C96.6062 58.546 96.0482 58.396 95.4362 58.396C94.8242 58.396 94.2662 58.54 93.7622 58.828C93.2582 59.116 92.8562 59.536 92.5562 60.088C92.2562 60.64 92.1062 61.288 92.1062 62.032C92.1062 62.788 92.2562 63.448 92.5562 64.012C92.8562 64.564 93.2582 64.99 93.7622 65.29C94.2662 65.578 94.8242 65.722 95.4362 65.722C96.0482 65.722 96.6062 65.578 97.1102 65.29C97.6262 64.99 98.0342 64.564 98.3342 64.012C98.6342 63.448 98.7842 62.794 98.7842 62.05ZM102.596 62.032C102.596 61.024 102.8 60.142 103.208 59.386C103.616 58.618 104.174 58.024 104.882 57.604C105.602 57.184 106.4 56.974 107.276 56.974C108.14 56.974 108.89 57.16 109.526 57.532C110.162 57.904 110.636 58.372 110.948 58.936V57.136H112.604V67H110.948V65.164C110.624 65.74 110.138 66.22 109.49 66.604C108.854 66.976 108.11 67.162 107.258 67.162C106.382 67.162 105.59 66.946 104.882 66.514C104.174 66.082 103.616 65.476 103.208 64.696C102.8 63.916 102.596 63.028 102.596 62.032ZM110.948 62.05C110.948 61.306 110.798 60.658 110.498 60.106C110.198 59.554 109.79 59.134 109.274 58.846C108.77 58.546 108.212 58.396 107.6 58.396C106.988 58.396 106.43 58.54 105.926 58.828C105.422 59.116 105.02 59.536 104.72 60.088C104.42 60.64 104.27 61.288 104.27 62.032C104.27 62.788 104.42 63.448 104.72 64.012C105.02 64.564 105.422 64.99 105.926 65.29C106.43 65.578 106.988 65.722 107.6 65.722C108.212 65.722 108.77 65.578 109.274 65.29C109.79 64.99 110.198 64.564 110.498 64.012C110.798 63.448 110.948 62.794 110.948 62.05ZM117.01 58.972C117.346 58.384 117.838 57.904 118.486 57.532C119.134 57.16 119.872 56.974 120.7 56.974C121.588 56.974 122.386 57.184 123.094 57.604C123.802 58.024 124.36 58.618 124.768 59.386C125.176 60.142 125.38 61.024 125.38 62.032C125.38 63.028 125.176 63.916 124.768 64.696C124.36 65.476 123.796 66.082 123.076 66.514C122.368 66.946 121.576 67.162 120.7 67.162C119.848 67.162 119.098 66.976 118.45 66.604C117.814 66.232 117.334 65.758 117.01 65.182V67H115.372V53.68H117.01V58.972ZM123.706 62.032C123.706 61.288 123.556 60.64 123.256 60.088C122.956 59.536 122.548 59.116 122.032 58.828C121.528 58.54 120.97 58.396 120.358 58.396C119.758 58.396 119.2 58.546 118.684 58.846C118.18 59.134 117.772 59.56 117.46 60.124C117.16 60.676 117.01 61.318 117.01 62.05C117.01 62.794 117.16 63.448 117.46 64.012C117.772 64.564 118.18 64.99 118.684 65.29C119.2 65.578 119.758 65.722 120.358 65.722C120.97 65.722 121.528 65.578 122.032 65.29C122.548 64.99 122.956 64.564 123.256 64.012C123.556 63.448 123.706 62.788 123.706 62.032ZM126.924 62.032C126.924 61.024 127.128 60.142 127.536 59.386C127.944 58.618 128.502 58.024 129.21 57.604C129.93 57.184 130.728 56.974 131.604 56.974C132.468 56.974 133.218 57.16 133.854 57.532C134.49 57.904 134.964 58.372 135.276 58.936V57.136H136.932V67H135.276V65.164C134.952 65.74 134.466 66.22 133.818 66.604C133.182 66.976 132.438 67.162 131.586 67.162C130.71 67.162 129.918 66.946 129.21 66.514C128.502 66.082 127.944 65.476 127.536 64.696C127.128 63.916 126.924 63.028 126.924 62.032ZM135.276 62.05C135.276 61.306 135.126 60.658 134.826 60.106C134.526 59.554 134.118 59.134 133.602 58.846C133.098 58.546 132.54 58.396 131.928 58.396C131.316 58.396 130.758 58.54 130.254 58.828C129.75 59.116 129.348 59.536 129.048 60.088C128.748 60.64 128.598 61.288 128.598 62.032C128.598 62.788 128.748 63.448 129.048 64.012C129.348 64.564 129.75 64.99 130.254 65.29C130.758 65.578 131.316 65.722 131.928 65.722C132.54 65.722 133.098 65.578 133.602 65.29C134.118 64.99 134.526 64.564 134.826 64.012C135.126 63.448 135.276 62.794 135.276 62.05Z" fill="black"/>
</g>
<g filter="url(#filter1_d_116_379)">
<path d="M130.61 99.5505L135.194 84.8132L123.36 85.9255L130.61 99.5505Z" fill="white"/>
<path d="M130.849 99.6248L130.671 100.197L130.389 99.668L123.139 86.043L122.963 85.7117L123.336 85.6766L135.171 84.5643L135.545 84.5291L135.433 84.8874L130.849 99.6248Z" stroke="#B6ACAC" stroke-width="0.5"/>
</g>
<defs>
<filter id="filter0_d_116_379" x="0.5" y="0.5" width="191" height="130" filterUnits="userSpaceOnUse" color-interpolation-filters="sRGB">
<feFlood flood-opacity="0" result="BackgroundImageFix"/>
<feColorMatrix in="SourceAlpha" type="matrix" values="0 0 0 0 0 0 0 0 0 0 0 0 0 0 0 0 0 0 127 0" result="hardAlpha"/>
<feOffset dy="5"/>
<feGaussianBlur stdDeviation="20"/>
<feComposite in2="hardAlpha" operator="out"/>
<feColorMatrix type="matrix" values="0 0 0 0 0 0 0 0 0 0 0 0 0 0 0 0 0 0 0.2 0"/>
<feBlend mode="normal" in2="BackgroundImageFix" result="effect1_dropShadow_116_379"/>
<feBlend mode="normal" in="SourceGraphic" in2="effect1_dropShadow_116_379" result="shape"/>
</filter>
<filter id="filter1_d_116_379" x="112.566" y="78.2451" width="33.3289" height="36.5981" filterUnits="userSpaceOnUse" color-interpolation-filters="sRGB">
<feFlood flood-opacity="0" result="BackgroundImageFix"/>
<feColorMatrix in="SourceAlpha" type="matrix" values="0 0 0 0 0 0 0 0 0 0 0 0 0 0 0 0 0 0 127 0" result="hardAlpha"/>
<feOffset dy="4"/>
<feGaussianBlur stdDeviation="5"/>
<feComposite in2="hardAlpha" operator="out"/>
<feColorMatrix type="matrix" values="0 0 0 0 0 0 0 0 0 0 0 0 0 0 0 0 0 0 0.2 0"/>
<feBlend mode="normal" in2="BackgroundImageFix" result="effect1_dropShadow_116_379"/>
<feBlend mode="normal" in="SourceGraphic" in2="effect1_dropShadow_116_379" result="shape"/>
</filter>
</defs>
</svg>
