<svg width="192" height="131" viewBox="0 0 192 131" fill="none" xmlns="http://www.w3.org/2000/svg">
<g filter="url(#filter0_d_116_374)">
<rect x="41" y="36" width="110" height="49" rx="24.5" fill="white"/>
<rect x="40.75" y="35.75" width="110.5" height="49.5" rx="24.75" stroke="#B6ACAC" stroke-width="0.5"/>
<path d="M56.668 60.538C57.124 60.61 57.538 60.796 57.91 61.096C58.294 61.396 58.594 61.768 58.81 62.212C59.038 62.656 59.152 63.13 59.152 63.634C59.152 64.27 58.99 64.846 58.666 65.362C58.342 65.866 57.868 66.268 57.244 66.568C56.632 66.856 55.906 67 55.066 67H50.386V54.454H54.886C55.738 54.454 56.464 54.598 57.064 54.886C57.664 55.162 58.114 55.54 58.414 56.02C58.714 56.5 58.864 57.04 58.864 57.64C58.864 58.384 58.66 59.002 58.252 59.494C57.856 59.974 57.328 60.322 56.668 60.538ZM52.024 59.872H54.778C55.546 59.872 56.14 59.692 56.56 59.332C56.98 58.972 57.19 58.474 57.19 57.838C57.19 57.202 56.98 56.704 56.56 56.344C56.14 55.984 55.534 55.804 54.742 55.804H52.024V59.872ZM54.922 65.65C55.738 65.65 56.374 65.458 56.83 65.074C57.286 64.69 57.514 64.156 57.514 63.472C57.514 62.776 57.274 62.23 56.794 61.834C56.314 61.426 55.672 61.222 54.868 61.222H52.024V65.65H54.922ZM62.2711 55.534C61.9591 55.534 61.6951 55.426 61.4791 55.21C61.2631 54.994 61.1551 54.73 61.1551 54.418C61.1551 54.106 61.2631 53.842 61.4791 53.626C61.6951 53.41 61.9591 53.302 62.2711 53.302C62.5711 53.302 62.8231 53.41 63.0271 53.626C63.2431 53.842 63.3511 54.106 63.3511 54.418C63.3511 54.73 63.2431 54.994 63.0271 55.21C62.8231 55.426 62.5711 55.534 62.2711 55.534ZM63.0631 57.136V67H61.4251V57.136H63.0631ZM74.8548 61.69C74.8548 62.002 74.8368 62.332 74.8008 62.68H66.9168C66.9768 63.652 67.3068 64.414 67.9068 64.966C68.5188 65.506 69.2568 65.776 70.1208 65.776C70.8288 65.776 71.4168 65.614 71.8848 65.29C72.3648 64.954 72.7008 64.51 72.8928 63.958H74.6568C74.3928 64.906 73.8648 65.68 73.0728 66.28C72.2808 66.868 71.2968 67.162 70.1208 67.162C69.1848 67.162 68.3448 66.952 67.6008 66.532C66.8688 66.112 66.2928 65.518 65.8728 64.75C65.4528 63.97 65.2428 63.07 65.2428 62.05C65.2428 61.03 65.4468 60.136 65.8548 59.368C66.2628 58.6 66.8328 58.012 67.5648 57.604C68.3088 57.184 69.1608 56.974 70.1208 56.974C71.0568 56.974 71.8848 57.178 72.6048 57.586C73.3248 57.994 73.8768 58.558 74.2608 59.278C74.6568 59.986 74.8548 60.79 74.8548 61.69ZM73.1628 61.348C73.1628 60.724 73.0248 60.19 72.7488 59.746C72.4728 59.29 72.0948 58.948 71.6148 58.72C71.1468 58.48 70.6248 58.36 70.0488 58.36C69.2208 58.36 68.5128 58.624 67.9248 59.152C67.3488 59.68 67.0188 60.412 66.9348 61.348H73.1628ZM81.8229 56.956C83.0229 56.956 83.9949 57.322 84.7389 58.054C85.4829 58.774 85.8549 59.818 85.8549 61.186V67H84.2349V61.42C84.2349 60.436 83.9889 59.686 83.4969 59.17C83.0049 58.642 82.3329 58.378 81.4809 58.378C80.6169 58.378 79.9269 58.648 79.4109 59.188C78.9069 59.728 78.6549 60.514 78.6549 61.546V67H77.0169V57.136H78.6549V58.54C78.9789 58.036 79.4169 57.646 79.9689 57.37C80.5329 57.094 81.1509 56.956 81.8229 56.956ZM92.2025 65.488L95.2625 57.136H97.0085L93.1385 67H91.2305L87.3605 57.136H89.1245L92.2025 65.488ZM107.62 61.69C107.62 62.002 107.602 62.332 107.566 62.68H99.6824C99.7424 63.652 100.072 64.414 100.672 64.966C101.284 65.506 102.022 65.776 102.886 65.776C103.594 65.776 104.182 65.614 104.65 65.29C105.13 64.954 105.466 64.51 105.658 63.958H107.422C107.158 64.906 106.63 65.68 105.838 66.28C105.046 66.868 104.062 67.162 102.886 67.162C101.95 67.162 101.11 66.952 100.366 66.532C99.6344 66.112 99.0584 65.518 98.6384 64.75C98.2184 63.97 98.0084 63.07 98.0084 62.05C98.0084 61.03 98.2124 60.136 98.6204 59.368C99.0284 58.6 99.5984 58.012 100.33 57.604C101.074 57.184 101.926 56.974 102.886 56.974C103.822 56.974 104.65 57.178 105.37 57.586C106.09 57.994 106.642 58.558 107.026 59.278C107.422 59.986 107.62 60.79 107.62 61.69ZM105.928 61.348C105.928 60.724 105.79 60.19 105.514 59.746C105.238 59.29 104.86 58.948 104.38 58.72C103.912 58.48 103.39 58.36 102.814 58.36C101.986 58.36 101.278 58.624 100.69 59.152C100.114 59.68 99.7844 60.412 99.7004 61.348H105.928ZM114.588 56.956C115.788 56.956 116.76 57.322 117.504 58.054C118.248 58.774 118.62 59.818 118.62 61.186V67H117V61.42C117 60.436 116.754 59.686 116.262 59.17C115.77 58.642 115.098 58.378 114.246 58.378C113.382 58.378 112.692 58.648 112.176 59.188C111.672 59.728 111.42 60.514 111.42 61.546V67H109.782V57.136H111.42V58.54C111.744 58.036 112.182 57.646 112.734 57.37C113.298 57.094 113.916 56.956 114.588 56.956ZM130.044 57.136V67H128.406V65.542C128.094 66.046 127.656 66.442 127.092 66.73C126.54 67.006 125.928 67.144 125.256 67.144C124.488 67.144 123.798 66.988 123.186 66.676C122.574 66.352 122.088 65.872 121.728 65.236C121.38 64.6 121.206 63.826 121.206 62.914V57.136H122.826V62.698C122.826 63.67 123.072 64.42 123.564 64.948C124.056 65.464 124.728 65.722 125.58 65.722C126.456 65.722 127.146 65.452 127.65 64.912C128.154 64.372 128.406 63.586 128.406 62.554V57.136H130.044ZM141.81 61.69C141.81 62.002 141.792 62.332 141.756 62.68H133.872C133.932 63.652 134.262 64.414 134.862 64.966C135.474 65.506 136.212 65.776 137.076 65.776C137.784 65.776 138.372 65.614 138.84 65.29C139.32 64.954 139.656 64.51 139.848 63.958H141.612C141.348 64.906 140.82 65.68 140.028 66.28C139.236 66.868 138.252 67.162 137.076 67.162C136.14 67.162 135.3 66.952 134.556 66.532C133.824 66.112 133.248 65.518 132.828 64.75C132.408 63.97 132.198 63.07 132.198 62.05C132.198 61.03 132.402 60.136 132.81 59.368C133.218 58.6 133.788 58.012 134.52 57.604C135.264 57.184 136.116 56.974 137.076 56.974C138.012 56.974 138.84 57.178 139.56 57.586C140.28 57.994 140.832 58.558 141.216 59.278C141.612 59.986 141.81 60.79 141.81 61.69ZM140.118 61.348C140.118 60.724 139.98 60.19 139.704 59.746C139.428 59.29 139.05 58.948 138.57 58.72C138.102 58.48 137.58 58.36 137.004 58.36C136.176 58.36 135.468 58.624 134.88 59.152C134.304 59.68 133.974 60.412 133.89 61.348H140.118Z" fill="black"/>
</g>
<g filter="url(#filter1_d_116_374)">
<path d="M130.61 99.5505L135.194 84.8132L123.36 85.9255L130.61 99.5505Z" fill="white"/>
<path d="M130.849 99.6248L130.671 100.197L130.389 99.668L123.139 86.043L122.963 85.7117L123.336 85.6766L135.171 84.5643L135.545 84.5291L135.433 84.8874L130.849 99.6248Z" stroke="#B6ACAC" stroke-width="0.5"/>
</g>
<defs>
<filter id="filter0_d_116_374" x="0.5" y="0.5" width="191" height="130" filterUnits="userSpaceOnUse" color-interpolation-filters="sRGB">
<feFlood flood-opacity="0" result="BackgroundImageFix"/>
<feColorMatrix in="SourceAlpha" type="matrix" values="0 0 0 0 0 0 0 0 0 0 0 0 0 0 0 0 0 0 127 0" result="hardAlpha"/>
<feOffset dy="5"/>
<feGaussianBlur stdDeviation="20"/>
<feComposite in2="hardAlpha" operator="out"/>
<feColorMatrix type="matrix" values="0 0 0 0 0 0 0 0 0 0 0 0 0 0 0 0 0 0 0.2 0"/>
<feBlend mode="normal" in2="BackgroundImageFix" result="effect1_dropShadow_116_374"/>
<feBlend mode="normal" in="SourceGraphic" in2="effect1_dropShadow_116_374" result="shape"/>
</filter>
<filter id="filter1_d_116_374" x="112.566" y="78.2451" width="33.3289" height="36.5981" filterUnits="userSpaceOnUse" color-interpolation-filters="sRGB">
<feFlood flood-opacity="0" result="BackgroundImageFix"/>
<feColorMatrix in="SourceAlpha" type="matrix" values="0 0 0 0 0 0 0 0 0 0 0 0 0 0 0 0 0 0 127 0" result="hardAlpha"/>
<feOffset dy="4"/>
<feGaussianBlur stdDeviation="5"/>
<feComposite in2="hardAlpha" operator="out"/>
<feColorMatrix type="matrix" values="0 0 0 0 0 0 0 0 0 0 0 0 0 0 0 0 0 0 0.2 0"/>
<feBlend mode="normal" in2="BackgroundImageFix" result="effect1_dropShadow_116_374"/>
<feBlend mode="normal" in="SourceGraphic" in2="effect1_dropShadow_116_374" result="shape"/>
</filter>
</defs>
</svg>
