<svg width="24" height="24" viewBox="0 0 24 24" fill="none" xmlns="http://www.w3.org/2000/svg">
<g clip-path="url(#clip0_136_89)">
<path d="M0.7125 12C0.7125 16.9124 3.8625 21.0749 8.2125 22.6124V1.38745C3.8625 2.92495 0.7125 7.08745 0.7125 12Z" fill="#023E87"/>
<path d="M23.2125 12C23.2125 7.08745 20.1 2.92495 15.7125 1.38745V22.6124C20.1 21.0749 23.2125 16.9124 23.2125 12Z" fill="#ED1C24"/>
<path d="M8.2125 22.6125C9.375 23.025 10.65 23.25 11.9625 23.25C13.275 23.25 14.55 23.025 15.7125 22.6125V1.3875C14.55 0.975 13.3125 0.75 11.9625 0.75C10.6125 0.75 9.375 0.975 8.2125 1.3875V22.6125Z" fill="white"/>
</g>
<defs>
<clipPath id="clip0_136_89">
<rect width="24" height="24" fill="white"/>
</clipPath>
</defs>
</svg>
