<svg width="21" height="20" viewBox="0 0 21 20" fill="none" xmlns="http://www.w3.org/2000/svg">
<path d="M10.4917 1.66669C5.89169 1.66669 2.16669 5.40002 2.16669 10C2.16669 14.6 5.89169 18.3334 10.4917 18.3334C15.1 18.3334 18.8334 14.6 18.8334 10C18.8334 5.40002 15.1 1.66669 10.4917 1.66669ZM16.2667 6.66669H13.8084C13.5475 5.63457 13.1613 4.63827 12.6584 3.70002C14.1784 4.22336 15.4593 5.27646 16.2667 6.66669ZM10.5 3.36669C11.1917 4.36669 11.7334 5.47502 12.0917 6.66669H8.90835C9.26669 5.47502 9.80835 4.36669 10.5 3.36669ZM4.05002 11.6667C3.91669 11.1334 3.83335 10.575 3.83335 10C3.83335 9.42502 3.91669 8.86669 4.05002 8.33335H6.86669C6.80002 8.88335 6.75002 9.43335 6.75002 10C6.75002 10.5667 6.80002 11.1167 6.86669 11.6667H4.05002ZM4.73335 13.3334H7.19169C7.45835 14.375 7.84169 15.375 8.34169 16.3C6.81999 15.7795 5.53821 14.7257 4.73335 13.3334ZM7.19169 6.66669H4.73335C5.53821 5.27433 6.81999 4.22049 8.34169 3.70002C7.83871 4.63827 7.4525 5.63457 7.19169 6.66669ZM10.5 16.6334C9.80835 15.6334 9.26669 14.525 8.90835 13.3334H12.0917C11.7334 14.525 11.1917 15.6334 10.5 16.6334ZM12.45 11.6667H8.55002C8.47502 11.1167 8.41669 10.5667 8.41669 10C8.41669 9.43335 8.47502 8.87502 8.55002 8.33335H12.45C12.525 8.87502 12.5834 9.43335 12.5834 10C12.5834 10.5667 12.525 11.1167 12.45 11.6667ZM12.6584 16.3C13.1584 15.375 13.5417 14.375 13.8084 13.3334H16.2667C15.4593 14.7236 14.1784 15.7767 12.6584 16.3ZM14.1334 11.6667C14.2 11.1167 14.25 10.5667 14.25 10C14.25 9.43335 14.2 8.88335 14.1334 8.33335H16.95C17.0834 8.86669 17.1667 9.42502 17.1667 10C17.1667 10.575 17.0834 11.1334 16.95 11.6667H14.1334Z" fill="black"/>
</svg>
