<?xml version="1.0" encoding="UTF-8" standalone="no"?>
<svg
   xmlns:dc="http://purl.org/dc/elements/1.1/"
   xmlns:cc="http://creativecommons.org/ns#"
   xmlns:rdf="http://www.w3.org/1999/02/22-rdf-syntax-ns#"
   xmlns:svg="http://www.w3.org/2000/svg"
   xmlns="http://www.w3.org/2000/svg"
   xmlns:sodipodi="http://sodipodi.sourceforge.net/DTD/sodipodi-0.dtd"
   xmlns:inkscape="http://www.inkscape.org/namespaces/inkscape"
   width="152"
   height="44"
   viewBox="0 0 152 44"
   fill="none"
   version="1.1"
   id="svg10"
   sodipodi:docname="Logo.svg"
   inkscape:version="1.0.1 (3bc2e813f5, 2020-09-07)">
  <metadata
     id="metadata16">
    <rdf:RDF>
      <cc:Work
         rdf:about="">
        <dc:format>image/svg+xml</dc:format>
        <dc:type
           rdf:resource="http://purl.org/dc/dcmitype/StillImage" />
      </cc:Work>
    </rdf:RDF>
  </metadata>
  <defs
     id="defs14" />
  <sodipodi:namedview
     pagecolor="#ffffff"
     bordercolor="#666666"
     borderopacity="1"
     objecttolerance="10"
     gridtolerance="10"
     guidetolerance="10"
     inkscape:pageopacity="0"
     inkscape:pageshadow="2"
     inkscape:window-width="1366"
     inkscape:window-height="745"
     id="namedview12"
     showgrid="false"
     inkscape:zoom="3.4276316"
     inkscape:cx="59.542437"
     inkscape:cy="35.113136"
     inkscape:window-x="-8"
     inkscape:window-y="-8"
     inkscape:window-maximized="1"
     inkscape:current-layer="svg10" />
  <path
     d="m 4.55121,26.6753 c 0,1.1184 0.19451,1.9451 0.58353,2.48 0.41334,0.5349 0.94824,0.8023 1.60472,0.8023 0.63216,0 1.36157,-0.2553 2.18824,-0.7658 0.82667,-0.5106 1.8357,-1.4224 3.0271,-2.7354 l 1.9694,-9.1176 c -0.3404,-0.1946 -0.7051,-0.3526 -1.0941,-0.4742 -0.3647,-0.1458 -0.7416,-0.2188 -1.1306,-0.2188 -0.5836,0 -1.24,0.1824 -1.96944,0.5471 -0.7051,0.3647 -1.38589,0.8874 -2.04236,1.5682 -0.8753,0.8996 -1.61687,2.0424 -2.22472,3.4283 -0.60785,1.3859 -0.91177,2.8812 -0.91177,4.4859 z m 8.75299,5.7988 c -0.4863,0 -0.9239,-0.1702 -1.313,-0.5106 -0.389,-0.3404 -0.5835,-0.8753 -0.5835,-1.6047 0,-0.7051 0.0486,-1.3494 0.1459,-1.9329 -1.0455,1.1913 -2.12747,2.1639 -3.2459,2.9176 -1.09412,0.7538 -2.13962,1.1306 -3.13649,1.1306 -0.8753,0 -1.67765,-0.3404 -2.40707,-1.0212 -0.7051,-0.6807 -1.05765,-1.7749 -1.05765,-3.2823 0,-1.2643 0.23098,-2.553 0.69295,-3.8659 0.48627,-1.313 1.11843,-2.5651 1.89648,-3.7565 0.80235,-1.2157 1.68981,-2.2977 2.66236,-3.2459 0.99687,-0.9483 2.00589,-1.6898 3.02707,-2.2247 1.04545,-0.5592 2.04235,-0.8389 2.99065,-0.8389 0.4133,0 0.7902,0.0851 1.1305,0.2553 0.3404,0.1702 0.6565,0.4134 0.9483,0.7295 l 1.6776,-1.3495 0.6565,0.3283 -2.9176,12.8741 c -0.2189,0.8997 -0.3283,1.5926 -0.3283,2.0789 0,0.2431 0.0851,0.4376 0.2553,0.5835 0.1702,0.1459 0.3769,0.2188 0.62,0.2188 0.462,0 1.009,-0.2431 1.6412,-0.7294 0.6565,-0.4863 1.3008,-1.1184 1.933,-1.8965 l 0.8752,0.693 c -0.4619,0.7051 -1.0211,1.398 -1.6776,2.0788 -0.6565,0.6808 -1.3616,1.2522 -2.1153,1.7141 -0.7537,0.4377 -1.5439,0.6565 -2.3706,0.6565 z M 32.614,4.64693 c 1.0698,0 1.9816,0.27961 2.7353,0.83883 0.7781,0.53491 1.24,1.14275 1.3859,1.82354 -0.2431,0.8267 -0.7172,1.24 -1.4223,1.24 -0.5349,0 -1.0091,-0.158 -1.4224,-0.4741 C 33.5015,7.75911 33.0152,7.24851 32.4317,6.54341 L 31.8481,5.85047 C 31.2403,6.11792 30.6568,6.56773 30.0975,7.19989 29.5383,7.80773 29.0277,8.683 28.5658,9.8258 c -0.4377,1.1184 -0.8145,2.6137 -1.1306,4.4859 -0.0243,0.0729 -0.0365,0.1459 -0.0365,0.2188 0,0.0486 -0.0121,0.1094 -0.0365,0.1824 h 4.7048 l -0.2918,1.9329 -4.7047,-0.1459 c -0.389,2.3098 -0.7781,4.6804 -1.1671,7.1118 -0.389,2.4314 -0.8145,4.802 -1.2765,7.1118 -0.389,1.9451 -0.8631,3.6349 -1.4223,5.0695 -0.5349,1.4345 -1.313,2.6137 -2.3342,3.5376 -0.7537,0.6808 -1.4345,1.1428 -2.0423,1.3859 -0.6322,0.2675 -1.24,0.4012 -1.8236,0.4012 -0.8266,0 -1.556,-0.2067 -2.1882,-0.62 -0.6322,-0.4133 -1.0333,-0.9604 -1.2035,-1.6412 0.0729,-0.389 0.2796,-0.7051 0.62,-0.9482 0.3161,-0.2432 0.6686,-0.3647 1.0576,-0.3647 0.5349,0 1.0212,0.1458 1.4589,0.4376 0.4133,0.2918 0.8145,0.6443 1.2035,1.0577 l 0.4376,0.4376 c 0.2432,-0.1945 0.4863,-0.4255 0.7295,-0.6929 0.2674,-0.2432 0.5227,-0.5349 0.7658,-0.8753 0.462,-0.6808 0.8632,-1.5804 1.2036,-2.6989 0.3404,-1.0941 0.6808,-2.5894 1.0212,-4.4859 0.4376,-2.4557 0.8388,-4.8384 1.2035,-7.1482 0.389,-2.3099 0.778,-4.6926 1.1671,-7.1483 h -3.793 l 0.2918,-1.3859 3.7929,-0.3282 0.0365,-0.3283 c 0.3161,-2.018 0.778,-3.6592 1.3859,-4.9235 0.6321,-1.2887 1.3251,-2.27337 2.0788,-2.95416 0.7781,-0.7051 1.5439,-1.19138 2.2977,-1.45883 0.778,-0.26745 1.4588,-0.40118 2.0423,-0.40118 z"
     fill="#ed1c24"
     id="path2" />
  <path
     d="m 34.64,17.9295 -1.538,4.5378 h 3.0607 z m -4.6292,8.5579 V 25.863 l 1.2791,-0.1979 3.2435,-9.4411 h 0.9593 l 3.2435,9.502 1.1421,0.137 v 0.6244 H 35.7364 V 25.863 l 1.4923,-0.1827 -0.8376,-2.4973 h -3.5327 l -0.8528,2.4821 1.4923,0.1979 v 0.6244 z m 10.4166,0 v -0.5482 l 1.2182,-0.2132 c 0.0101,-0.4162 0.0152,-0.8223 0.0152,-1.2182 0.0102,-0.4061 0.0153,-0.8121 0.0153,-1.2182 v -6.6849 l -1.2487,-0.1523 v -0.5329 l 2.3755,-0.6853 0.2132,0.1218 -0.0609,2.1624 v 5.7712 c 0,0.4061 0,0.8121 0,1.2182 0.0101,0.4061 0.0203,0.8121 0.0304,1.2182 l 1.2182,0.2132 v 0.5482 z m 4.5355,0 v -0.5482 l 1.2182,-0.2132 c 0.0102,-0.4162 0.0153,-0.8223 0.0153,-1.2182 0.0101,-0.4061 0.0152,-0.8121 0.0152,-1.2182 v -6.6849 l -1.2487,-0.1523 v -0.5329 l 2.3755,-0.6853 0.2132,0.1218 -0.0609,2.1624 v 5.7712 c 0,0.4061 0,0.8121 0,1.2182 0.0102,0.4061 0.0203,0.8121 0.0305,1.2182 l 1.2182,0.2132 v 0.5482 z m 4.6879,0 v -0.5482 l 1.142,-0.2132 c 0.0102,-0.3858 0.0152,-0.802 0.0152,-1.2487 0.0102,-0.4568 0.0153,-0.8527 0.0153,-1.1877 v -0.7157 c 0,-0.4162 -0.0051,-0.7614 -0.0153,-1.0355 0,-0.2842 -0.0101,-0.5786 -0.0304,-0.8832 l -1.2182,-0.137 v -0.533 l 2.345,-0.9289 0.2284,0.1523 -0.0456,2.071 v 2.01 c 0,0.335 0,0.7309 0,1.1877 0.0101,0.4467 0.0203,0.8629 0.0304,1.2487 l 1.0659,0.2132 v 0.5482 z m 1.7968,-9.1061 c -0.2842,0 -0.5279,-0.0914 -0.7309,-0.2741 -0.1929,-0.1827 -0.2893,-0.4162 -0.2893,-0.7005 0,-0.2944 0.0964,-0.5278 0.2893,-0.7004 0.203,-0.1828 0.4467,-0.2741 0.7309,-0.2741 0.2842,0 0.5228,0.0913 0.7157,0.2741 0.203,0.1726 0.3045,0.406 0.3045,0.7004 0,0.2843 -0.1015,0.5178 -0.3045,0.7005 -0.1929,0.1827 -0.4315,0.2741 -0.7157,0.2741 z m 8.5404,9.2583 c -0.3655,0 -0.67,-0.1066 -0.9137,-0.3197 -0.2436,-0.2132 -0.3959,-0.4975 -0.4568,-0.8528 -0.4162,0.4061 -0.7817,0.7106 -1.0964,0.9137 -0.3147,0.203 -0.6954,0.3045 -1.142,0.3045 -0.5584,0 -1.0406,-0.1573 -1.4467,-0.472 -0.3959,-0.3249 -0.5938,-0.802 -0.5938,-1.4314 0,-0.2944 0.066,-0.5685 0.1979,-0.8223 0.1422,-0.2538 0.3959,-0.5025 0.7614,-0.7462 0.3655,-0.2436 0.8883,-0.4872 1.5684,-0.7309 0.2335,-0.0812 0.5026,-0.1675 0.8071,-0.2588 0.3046,-0.0914 0.6091,-0.1726 0.9137,-0.2437 v -0.3807 c 0,-0.741 -0.1117,-1.2334 -0.3351,-1.477 -0.2233,-0.2437 -0.5888,-0.3655 -1.0963,-0.3655 -0.1117,0 -0.2386,0.0051 -0.3807,0.0152 -0.132,0.0102 -0.2792,0.0356 -0.4416,0.0762 l -0.2893,0.9898 c -0.1422,0.4872 -0.4061,0.7309 -0.7919,0.7309 -0.4263,0 -0.6649,-0.2081 -0.7157,-0.6244 0.1422,-0.5786 0.4772,-1.0354 1.005,-1.3704 0.5381,-0.3452 1.1929,-0.5178 1.9644,-0.5178 0.802,0 1.3959,0.2031 1.7816,0.6091 0.3858,0.3959 0.5787,1.0761 0.5787,2.0405 v 3.2435 c 0,0.3248 0.0507,0.5583 0.1522,0.7005 0.1016,0.1319 0.2335,0.1979 0.396,0.1979 0.1319,0 0.2436,-0.0304 0.335,-0.0914 0.0913,-0.0609 0.1776,-0.1421 0.2588,-0.2436 l 0.3046,0.335 c -0.1828,0.2944 -0.3858,0.5025 -0.6091,0.6243 -0.2132,0.1117 -0.4518,0.1675 -0.7157,0.1675 z m -4.2942,-2.0861 c 0,0.406 0.1168,0.6954 0.3503,0.8679 0.2334,0.1726 0.5228,0.2589 0.8679,0.2589 0.1523,0 0.2944,-0.0203 0.4264,-0.0609 0.1421,-0.0406 0.3096,-0.1167 0.5025,-0.2284 0.1929,-0.1218 0.4416,-0.2944 0.7462,-0.5178 v -2.3298 c -0.264,0.0711 -0.5229,0.1523 -0.7767,0.2437 -0.2537,0.0812 -0.4619,0.1523 -0.6243,0.2132 -0.4365,0.1725 -0.7614,0.3502 -0.9745,0.5329 -0.2132,0.1828 -0.3554,0.3604 -0.4264,0.533 -0.0609,0.1726 -0.0914,0.335 -0.0914,0.4873 z m 6.2419,1.9339 v -0.5482 l 1.1268,-0.2132 c 0.0102,-0.3858 0.0152,-0.802 0.0152,-1.2487 0.0102,-0.4466 0.0153,-0.8426 0.0153,-1.1877 v -0.7309 c 0,-0.4163 -0.0051,-0.7614 -0.0153,-1.0355 0,-0.2741 -0.0101,-0.5634 -0.0304,-0.868 l -1.203,-0.137 v -0.533 l 2.1319,-0.9289 0.2284,0.1523 0.1218,1.2182 c 0.3756,-0.4061 0.8071,-0.736 1.2943,-0.9898 0.4873,-0.2538 0.9645,-0.3807 1.4314,-0.3807 0.6599,0 1.1472,0.2234 1.4619,0.67 0.3248,0.4366 0.4873,1.1523 0.4873,2.1471 v 1.4162 c 0,0.3451 0,0.7411 0,1.1877 0.0101,0.4467 0.0203,0.8629 0.0304,1.2487 l 1.0659,0.2132 v 0.5482 h -3.5328 v -0.5482 l 1.1269,-0.2132 c 0.0101,-0.3756 0.0152,-0.7868 0.0152,-1.2334 0.0102,-0.4569 0.0152,-0.8579 0.0152,-1.203 v -1.2944 c 0,-0.7004 -0.1015,-1.1826 -0.3045,-1.4466 -0.1929,-0.2639 -0.5127,-0.3959 -0.9593,-0.3959 -0.3452,0 -0.6802,0.0711 -1.0051,0.2132 -0.3248,0.1421 -0.6801,0.3756 -1.0659,0.7005 v 2.2232 c 0,0.335 0,0.7309 0,1.1877 0.0102,0.4467 0.0203,0.8629 0.0305,1.2487 l 1.0507,0.2132 v 0.5482 z m 12.6913,0.1979 c -1.0456,0 -1.8781,-0.3401 -2.4973,-1.0202 -0.6193,-0.6802 -0.9289,-1.604 -0.9289,-2.7714 0,-0.802 0.1624,-1.4873 0.4873,-2.0557 0.335,-0.5787 0.7715,-1.0203 1.3095,-1.3248 0.5381,-0.3046 1.1117,-0.4569 1.7208,-0.4569 0.4568,0 0.8781,0.0863 1.2638,0.2589 0.3858,0.1726 0.7056,0.4111 0.9594,0.7157 0.2538,0.2944 0.4111,0.6294 0.472,1.005 -0.071,0.3858 -0.3045,0.5787 -0.7004,0.5787 -0.2538,0 -0.4467,-0.066 -0.5787,-0.198 -0.1218,-0.1421 -0.2081,-0.3198 -0.2589,-0.533 l -0.274,-1.005 c -0.1422,-0.0507 -0.2843,-0.0812 -0.4264,-0.0913 -0.132,-0.0203 -0.264,-0.0305 -0.3959,-0.0305 -0.6497,0 -1.1878,0.2538 -1.6142,0.7614 -0.4162,0.5076 -0.6243,1.2486 -0.6243,2.2232 0,0.9543 0.2284,1.6852 0.6853,2.1928 0.4568,0.5075 1.0405,0.7613 1.7511,0.7613 0.4365,0 0.8375,-0.0964 1.203,-0.2893 0.3655,-0.203 0.6649,-0.4923 0.8984,-0.868 l 0.3807,0.198 c -0.2132,0.6294 -0.5583,1.1116 -1.0355,1.4466 -0.4771,0.335 -1.076,0.5025 -1.7968,0.5025 z m 7.4658,-6.9285 c -0.2843,0 -0.5736,0.0812 -0.868,0.2436 -0.2843,0.1625 -0.533,0.4213 -0.7462,0.7766 -0.203,0.3554 -0.335,0.8274 -0.3959,1.4162 h 2.7714 c 0.3655,0 0.6041,-0.0761 0.7157,-0.2284 0.1219,-0.1523 0.1828,-0.3401 0.1828,-0.5634 0,-0.2944 -0.0762,-0.5634 -0.2285,-0.8071 -0.1421,-0.2538 -0.34,-0.4568 -0.5938,-0.6091 -0.2437,-0.1523 -0.5228,-0.2284 -0.8375,-0.2284 z m -0.0153,6.9285 c -1.0253,0 -1.8476,-0.3299 -2.4668,-0.9898 -0.6193,-0.67 -0.9289,-1.5887 -0.9289,-2.7561 0,-0.7817 0.1573,-1.4619 0.472,-2.0405 0.3249,-0.5787 0.7513,-1.0304 1.2792,-1.3553 0.538,-0.3248 1.1217,-0.4873 1.7511,-0.4873 0.5279,0 1.005,0.1168 1.4314,0.3503 0.4264,0.2335 0.7665,0.5685 1.0203,1.005 0.2537,0.4264 0.3806,0.9492 0.3806,1.5684 0,0.1726 -0.0101,0.335 -0.0304,0.4873 -0.0203,0.1421 -0.0457,0.2639 -0.0761,0.3655 h -4.8576 c 0.0203,0.9339 0.2538,1.6445 0.7004,2.1318 0.4467,0.4873 1.0355,0.7309 1.7664,0.7309 0.4873,0 0.8934,-0.0964 1.2182,-0.2893 0.3249,-0.203 0.6244,-0.4619 0.8985,-0.7766 l 0.3654,0.2893 c -0.2842,0.5381 -0.67,0.9695 -1.1573,1.2944 -0.4873,0.3147 -1.0761,0.472 -1.7664,0.472 z"
     fill="#000000"
     id="path4" />
  <path
     d="m 86.2803,16.9245 v -0.6243 h 7.5833 l 0.1066,2.6952 h -0.8679 l -0.335,-1.9339 h -3.5785 c -0.0102,0.6497 -0.0203,1.2994 -0.0305,1.9492 0,0.6497 0,1.2892 0,1.9186 h 2.3603 l 0.2132,-1.4466 h 0.7005 v 3.746 H 91.7318 L 91.5186,21.645 h -2.3603 c 0,0.7512 0,1.4568 0,2.1166 0.0102,0.6599 0.0203,1.3045 0.0305,1.9339 l 1.4161,0.1675 v 0.6244 H 86.2803 V 25.863 l 1.401,-0.1675 c 0.0203,-0.6395 0.0304,-1.2892 0.0304,-1.9491 0,-0.6598 0,-1.3197 0,-1.9796 v -0.7461 c 0,-0.6599 0,-1.3147 0,-1.9644 0,-0.6598 -0.0101,-1.3146 -0.0304,-1.9643 z m 8.4607,9.5629 v -0.5482 l 1.0964,-0.198 c 0.0101,-0.3857 0.0152,-0.802 0.0152,-1.2486 0.0102,-0.4569 0.0152,-0.8579 0.0152,-1.203 v -0.7309 c 0,-0.4163 -0.005,-0.7614 -0.0152,-1.0355 0,-0.2741 -0.0101,-0.5634 -0.0304,-0.868 l -1.203,-0.137 v -0.533 l 2.1318,-0.9289 0.2285,0.1523 0.1675,1.7969 c 0.2537,-0.6091 0.5786,-1.0863 0.9745,-1.4314 0.4061,-0.3452 0.8121,-0.5178 1.2182,-0.5178 0.2335,0 0.4518,0.0508 0.6548,0.1523 0.2035,0.1015 0.3505,0.2386 0.4415,0.4112 0,0.741 -0.299,1.1116 -0.8983,1.1116 -0.1726,0 -0.335,-0.0305 -0.4873,-0.0914 -0.1523,-0.0711 -0.2995,-0.1675 -0.4416,-0.2893 l -0.1827,-0.1675 c -0.3046,0.2233 -0.5584,0.4974 -0.7614,0.8223 -0.203,0.3248 -0.3705,0.7055 -0.5025,1.142 v 1.1421 c 0,0.335 0,0.7258 0,1.1725 0.0101,0.4467 0.0203,0.8629 0.0304,1.2487 l 1.2487,0.2284 v 0.5482 z m 11.971,0.1522 c -0.366,0 -0.671,-0.1066 -0.914,-0.3197 -0.244,-0.2132 -0.396,-0.4975 -0.457,-0.8528 -0.416,0.4061 -0.782,0.7106 -1.096,0.9137 -0.315,0.203 -0.696,0.3045 -1.142,0.3045 -0.559,0 -1.041,-0.1573 -1.447,-0.472 -0.396,-0.3249 -0.594,-0.802 -0.594,-1.4314 0,-0.2944 0.066,-0.5685 0.198,-0.8223 0.142,-0.2538 0.396,-0.5025 0.761,-0.7462 0.366,-0.2436 0.889,-0.4872 1.569,-0.7309 0.233,-0.0812 0.502,-0.1675 0.807,-0.2588 0.304,-0.0914 0.609,-0.1726 0.914,-0.2437 v -0.3807 c 0,-0.741 -0.112,-1.2334 -0.335,-1.477 -0.224,-0.2437 -0.589,-0.3655 -1.097,-0.3655 -0.111,0 -0.238,0.0051 -0.381,0.0152 -0.131,0.0102 -0.279,0.0356 -0.441,0.0762 l -0.289,0.9898 c -0.143,0.4872 -0.406,0.7309 -0.792,0.7309 -0.427,0 -0.665,-0.2081 -0.716,-0.6244 0.142,-0.5786 0.477,-1.0354 1.005,-1.3704 0.538,-0.3452 1.193,-0.5178 1.964,-0.5178 0.802,0 1.396,0.2031 1.782,0.6091 0.386,0.3959 0.579,1.0761 0.579,2.0405 v 3.2435 c 0,0.3248 0.05,0.5583 0.152,0.7005 0.101,0.1319 0.233,0.1979 0.396,0.1979 0.132,0 0.244,-0.0304 0.335,-0.0914 0.091,-0.0609 0.178,-0.1421 0.259,-0.2436 l 0.304,0.335 c -0.182,0.2944 -0.385,0.5025 -0.609,0.6243 -0.213,0.1117 -0.452,0.1675 -0.715,0.1675 z m -4.295,-2.0861 c 0,0.406 0.117,0.6954 0.351,0.8679 0.233,0.1726 0.522,0.2589 0.868,0.2589 0.152,0 0.294,-0.0203 0.426,-0.0609 0.142,-0.0406 0.31,-0.1167 0.502,-0.2284 0.193,-0.1218 0.442,-0.2944 0.747,-0.5178 v -2.3298 c -0.264,0.0711 -0.523,0.1523 -0.777,0.2437 -0.254,0.0812 -0.462,0.1523 -0.624,0.2132 -0.437,0.1725 -0.762,0.3502 -0.975,0.5329 -0.213,0.1828 -0.355,0.3604 -0.426,0.533 -0.061,0.1726 -0.092,0.335 -0.092,0.4873 z m 6.242,1.9339 v -0.5482 l 1.127,-0.2132 c 0.01,-0.3858 0.015,-0.802 0.015,-1.2487 0.01,-0.4466 0.015,-0.8426 0.015,-1.1877 v -0.7309 c 0,-0.4163 -0.005,-0.7614 -0.015,-1.0355 0,-0.2741 -0.01,-0.5634 -0.03,-0.868 l -1.203,-0.137 v -0.533 l 2.132,-0.9289 0.228,0.1523 0.122,1.2182 c 0.376,-0.4061 0.807,-0.736 1.294,-0.9898 0.488,-0.2538 0.965,-0.3807 1.432,-0.3807 0.66,0 1.147,0.2234 1.461,0.67 0.325,0.4366 0.488,1.1523 0.488,2.1471 v 1.4162 c 0,0.3451 0,0.7411 0,1.1877 0.01,0.4467 0.02,0.8629 0.03,1.2487 l 1.066,0.2132 v 0.5482 h -3.533 v -0.5482 l 1.127,-0.2132 c 0.01,-0.3756 0.015,-0.7868 0.015,-1.2334 0.011,-0.4569 0.016,-0.8579 0.016,-1.203 v -1.2944 c 0,-0.7004 -0.102,-1.1826 -0.305,-1.4466 -0.193,-0.2639 -0.513,-0.3959 -0.959,-0.3959 -0.345,0 -0.68,0.0711 -1.005,0.2132 -0.325,0.1421 -0.68,0.3756 -1.066,0.7005 v 2.2232 c 0,0.335 0,0.7309 0,1.1877 0.01,0.4467 0.02,0.8629 0.03,1.2487 l 1.051,0.2132 v 0.5482 z m 12.692,0.1979 c -1.046,0 -1.879,-0.3401 -2.498,-1.0202 -0.619,-0.6802 -0.929,-1.604 -0.929,-2.7714 0,-0.802 0.163,-1.4873 0.488,-2.0557 0.335,-0.5787 0.771,-1.0203 1.309,-1.3248 0.538,-0.3046 1.112,-0.4569 1.721,-0.4569 0.457,0 0.878,0.0863 1.264,0.2589 0.386,0.1726 0.705,0.4111 0.959,0.7157 0.254,0.2944 0.411,0.6294 0.472,1.005 -0.071,0.3858 -0.304,0.5787 -0.7,0.5787 -0.254,0 -0.447,-0.066 -0.579,-0.198 -0.122,-0.1421 -0.208,-0.3198 -0.259,-0.533 l -0.274,-1.005 c -0.142,-0.0507 -0.284,-0.0812 -0.426,-0.0913 -0.132,-0.0203 -0.264,-0.0305 -0.396,-0.0305 -0.65,0 -1.188,0.2538 -1.614,0.7614 -0.417,0.5076 -0.625,1.2486 -0.625,2.2232 0,0.9543 0.229,1.6852 0.686,2.1928 0.456,0.5075 1.04,0.7613 1.751,0.7613 0.436,0 0.837,-0.0964 1.203,-0.2893 0.365,-0.203 0.665,-0.4923 0.898,-0.868 l 0.381,0.198 c -0.213,0.6294 -0.559,1.1116 -1.036,1.4466 -0.477,0.335 -1.076,0.5025 -1.796,0.5025 z m -0.457,1.1116 0.198,-1.3552 h 0.563 l -0.122,0.9289 c 0.386,0.0609 0.716,0.1928 0.99,0.3959 0.274,0.203 0.411,0.4873 0.411,0.8527 0,0.3452 -0.147,0.6345 -0.441,0.868 -0.285,0.2335 -0.706,0.3502 -1.264,0.3502 -0.224,0 -0.417,-0.0152 -0.579,-0.0457 -0.152,-0.0304 -0.279,-0.0609 -0.381,-0.0913 l 0.107,-0.4721 c 0.244,0.0305 0.487,0.0457 0.731,0.0457 0.589,0 0.883,-0.2284 0.883,-0.6852 0,-0.2335 -0.091,-0.4112 -0.274,-0.533 -0.173,-0.1218 -0.447,-0.2081 -0.822,-0.2589 z m 10.161,-1.1573 c -0.366,0 -0.67,-0.1066 -0.914,-0.3197 -0.244,-0.2132 -0.396,-0.4975 -0.457,-0.8528 -0.416,0.4061 -0.781,0.7106 -1.096,0.9137 -0.315,0.203 -0.696,0.3045 -1.142,0.3045 -0.559,0 -1.041,-0.1573 -1.447,-0.472 -0.396,-0.3249 -0.594,-0.802 -0.594,-1.4314 0,-0.2944 0.066,-0.5685 0.198,-0.8223 0.142,-0.2538 0.396,-0.5025 0.762,-0.7462 0.365,-0.2436 0.888,-0.4872 1.568,-0.7309 0.234,-0.0812 0.503,-0.1675 0.807,-0.2588 0.305,-0.0914 0.609,-0.1726 0.914,-0.2437 v -0.3807 c 0,-0.741 -0.112,-1.2334 -0.335,-1.477 -0.224,-0.2437 -0.589,-0.3655 -1.097,-0.3655 -0.111,0 -0.238,0.0051 -0.38,0.0152 -0.132,0.0102 -0.279,0.0356 -0.442,0.0762 l -0.289,0.9898 c -0.142,0.4872 -0.406,0.7309 -0.792,0.7309 -0.426,0 -0.665,-0.2081 -0.716,-0.6244 0.142,-0.5786 0.477,-1.0354 1.005,-1.3704 0.538,-0.3452 1.193,-0.5178 1.965,-0.5178 0.802,0 1.395,0.2031 1.781,0.6091 0.386,0.3959 0.579,1.0761 0.579,2.0405 v 3.2435 c 0,0.3248 0.051,0.5583 0.152,0.7005 0.102,0.1319 0.234,0.1979 0.396,0.1979 0.132,0 0.244,-0.0304 0.335,-0.0914 0.091,-0.0609 0.178,-0.1421 0.259,-0.2436 l 0.305,0.335 c -0.183,0.2944 -0.386,0.5025 -0.61,0.6243 -0.213,0.1117 -0.451,0.1675 -0.715,0.1675 z m -4.294,-2.0861 c 0,0.406 0.116,0.6954 0.35,0.8679 0.233,0.1726 0.523,0.2589 0.868,0.2589 0.152,0 0.294,-0.0203 0.426,-0.0609 0.142,-0.0406 0.31,-0.1167 0.503,-0.2284 0.193,-0.1218 0.441,-0.2944 0.746,-0.5178 v -2.3298 c -0.264,0.0711 -0.523,0.1523 -0.777,0.2437 -0.254,0.0812 -0.462,0.1523 -0.624,0.2132 -0.437,0.1725 -0.762,0.3502 -0.975,0.5329 -0.213,0.1828 -0.355,0.3604 -0.426,0.533 -0.061,0.1726 -0.091,0.335 -0.091,0.4873 z m 6.24,1.9339 v -0.5482 l 1.142,-0.2132 c 0.01,-0.3858 0.015,-0.802 0.015,-1.2487 0.01,-0.4568 0.015,-0.8527 0.015,-1.1877 v -0.7157 c 0,-0.4162 -0.005,-0.7614 -0.015,-1.0355 0,-0.2842 -0.01,-0.5786 -0.031,-0.8832 l -1.218,-0.137 v -0.533 l 2.345,-0.9289 0.229,0.1523 -0.046,2.071 v 2.01 c 0,0.335 0,0.7309 0,1.1877 0.01,0.4467 0.02,0.8629 0.03,1.2487 l 1.066,0.2132 v 0.5482 z m 1.796,-9.1061 c -0.284,0 -0.527,-0.0914 -0.73,-0.2741 -0.193,-0.1827 -0.29,-0.4162 -0.29,-0.7005 0,-0.2944 0.097,-0.5278 0.29,-0.7004 0.203,-0.1828 0.446,-0.2741 0.73,-0.2741 0.285,0 0.523,0.0913 0.716,0.2741 0.203,0.1726 0.305,0.406 0.305,0.7004 0,0.2843 -0.102,0.5178 -0.305,0.7005 -0.193,0.1827 -0.431,0.2741 -0.716,0.2741 z m 5.252,9.304 c -0.427,0 -0.817,-0.0507 -1.173,-0.1523 -0.355,-0.0913 -0.721,-0.2334 -1.096,-0.4263 l -0.061,-1.6751 h 0.837 l 0.29,1.3248 c 0.355,0.1625 0.766,0.2437 1.233,0.2437 0.579,0 1.005,-0.1066 1.279,-0.3198 0.285,-0.2132 0.427,-0.4923 0.427,-0.8375 0,-0.3249 -0.117,-0.5837 -0.351,-0.7766 -0.233,-0.203 -0.588,-0.3858 -1.065,-0.5482 l -0.701,-0.2589 c -0.558,-0.203 -1.005,-0.4669 -1.34,-0.7918 -0.335,-0.3249 -0.502,-0.7461 -0.502,-1.2639 0,-0.3756 0.101,-0.7258 0.304,-1.0507 0.203,-0.3248 0.503,-0.5888 0.898,-0.7918 0.396,-0.2031 0.879,-0.3046 1.447,-0.3046 0.416,0 0.792,0.0559 1.127,0.1675 0.345,0.1016 0.68,0.2538 1.005,0.4569 l -0.061,1.5532 h -0.792 l -0.243,-1.2182 c -0.346,-0.1726 -0.696,-0.2589 -1.051,-0.2589 -0.467,0 -0.822,0.0964 -1.066,0.2893 -0.234,0.1828 -0.35,0.4315 -0.35,0.7462 0,0.335 0.101,0.5888 0.304,0.7613 0.213,0.1726 0.579,0.3554 1.097,0.5482 l 0.472,0.1675 c 0.761,0.2843 1.299,0.6091 1.614,0.9746 0.325,0.3655 0.487,0.7868 0.487,1.2639 0,0.3858 -0.112,0.7461 -0.335,1.0811 -0.223,0.3249 -0.553,0.5888 -0.99,0.7919 -0.436,0.203 -0.984,0.3045 -1.644,0.3045 z m 7.653,-6.9285 c -0.284,0 -0.574,0.0812 -0.868,0.2436 -0.284,0.1625 -0.533,0.4213 -0.746,0.7766 -0.203,0.3554 -0.335,0.8274 -0.396,1.4162 h 2.771 c 0.366,0 0.604,-0.0761 0.716,-0.2284 0.122,-0.1523 0.183,-0.3401 0.183,-0.5634 0,-0.2944 -0.076,-0.5634 -0.229,-0.8071 -0.142,-0.2538 -0.34,-0.4568 -0.594,-0.6091 -0.243,-0.1523 -0.522,-0.2284 -0.837,-0.2284 z m -0.015,6.9285 c -1.026,0 -1.848,-0.3299 -2.467,-0.9898 -0.619,-0.67 -0.929,-1.5887 -0.929,-2.7561 0,-0.7817 0.157,-1.4619 0.472,-2.0405 0.325,-0.5787 0.751,-1.0304 1.279,-1.3553 0.538,-0.3248 1.122,-0.4873 1.751,-0.4873 0.528,0 1.005,0.1168 1.432,0.3503 0.426,0.2335 0.766,0.5685 1.02,1.005 0.254,0.4264 0.381,0.9492 0.381,1.5684 0,0.1726 -0.01,0.335 -0.031,0.4873 -0.02,0.1421 -0.045,0.2639 -0.076,0.3655 h -4.858 c 0.021,0.9339 0.254,1.6445 0.701,2.1318 0.447,0.4873 1.035,0.7309 1.766,0.7309 0.488,0 0.894,-0.0964 1.219,-0.2893 0.324,-0.203 0.624,-0.4619 0.898,-0.7766 l 0.365,0.2893 c -0.284,0.5381 -0.67,0.9695 -1.157,1.2944 -0.487,0.3147 -1.076,0.472 -1.766,0.472 z"
     fill="#ed1c24"
     id="path6" />
  <path
     d="m 79.6629,37.559 0.075,-0.3748 0.7778,-0.1125 3.2141,-5.7911 h 0.5436 l 0.8246,5.8005 0.8246,0.1031 -0.075,0.3748 h -2.4832 l 0.075,-0.3748 0.8152,-0.0937 -0.2436,-1.8086 h -2.0429 l -0.9464,1.7805 0.8152,0.1218 -0.0749,0.3748 z m 2.5301,-2.7081 h 1.7617 l -0.356,-2.652 z m 5.748,2.8299 c -0.4123,0 -0.7497,-0.1436 -1.0121,-0.431 -0.2623,-0.2936 -0.3935,-0.7341 -0.3935,-1.3213 0,-0.3936 0.0687,-0.7653 0.2061,-1.1151 0.1375,-0.3561 0.3218,-0.6685 0.5529,-0.9371 0.2311,-0.2749 0.4904,-0.4904 0.7778,-0.6466 0.2873,-0.1562 0.5778,-0.2343 0.8715,-0.2343 0.2873,0 0.5154,0.0656 0.684,0.1968 0.1687,0.125 0.278,0.2874 0.328,0.4873 -0.0187,0.1187 -0.0687,0.2031 -0.1499,0.253 -0.075,0.05 -0.1562,0.075 -0.2437,0.075 -0.0999,0 -0.1968,-0.0312 -0.2905,-0.0937 -0.0874,-0.0687 -0.1749,-0.1499 -0.2623,-0.2437 l -0.2812,-0.3186 c -0.2686,0.0937 -0.5154,0.2624 -0.7403,0.5061 -0.2249,0.2436 -0.406,0.5372 -0.5435,0.8808 -0.1374,0.3374 -0.2061,0.6997 -0.2061,1.087 0,0.4061 0.0968,0.7091 0.2905,0.909 0.1936,0.1999 0.4435,0.2999 0.7496,0.2999 0.2499,0 0.4686,-0.075 0.656,-0.2249 0.1937,-0.15 0.3561,-0.303 0.4873,-0.4592 l 0.2155,0.1687 c -0.1874,0.3248 -0.4373,0.5997 -0.7497,0.8246 -0.3123,0.2249 -0.6278,0.3373 -0.9464,0.3373 z m 3.7245,0 c -0.4123,0 -0.7497,-0.1436 -1.012,-0.431 -0.2624,-0.2936 -0.3936,-0.7341 -0.3936,-1.3213 0,-0.3936 0.0687,-0.7653 0.2061,-1.1151 0.1375,-0.3561 0.3218,-0.6685 0.5529,-0.9371 0.2312,-0.2749 0.4904,-0.4904 0.7778,-0.6466 0.2874,-0.1562 0.5779,-0.2343 0.8715,-0.2343 0.2874,0 0.5154,0.0656 0.684,0.1968 0.1687,0.125 0.278,0.2874 0.328,0.4873 -0.0187,0.1187 -0.0687,0.2031 -0.1499,0.253 -0.075,0.05 -0.1562,0.075 -0.2436,0.075 -0.1,0 -0.1968,-0.0312 -0.2905,-0.0937 -0.0875,-0.0687 -0.175,-0.1499 -0.2624,-0.2437 l -0.2811,-0.3186 c -0.2687,0.0937 -0.5154,0.2624 -0.7403,0.5061 -0.2249,0.2436 -0.4061,0.5372 -0.5435,0.8808 -0.1375,0.3374 -0.2062,0.6997 -0.2062,1.087 0,0.4061 0.0968,0.7091 0.2905,0.909 0.1937,0.1999 0.4435,0.2999 0.7497,0.2999 0.2498,0 0.4685,-0.075 0.6559,-0.2249 0.1937,-0.15 0.3561,-0.303 0.4873,-0.4592 l 0.2155,0.1687 c -0.1874,0.3248 -0.4373,0.5997 -0.7496,0.8246 -0.3124,0.2249 -0.6279,0.3373 -0.9465,0.3373 z m 2.6166,-0.1218 0.7965,-3.7577 -0.9277,-0.0562 0.0375,-0.2717 1.5462,-0.478 0.1218,0.0938 -0.2062,1.2556 c 0.1375,-0.2374 0.2811,-0.456 0.4311,-0.6559 0.1561,-0.2062 0.3186,-0.3717 0.4873,-0.4967 0.1686,-0.1312 0.3342,-0.1968 0.4966,-0.1968 0.1312,0 0.253,0.0219 0.3655,0.0656 0.1124,0.0375 0.1999,0.1094 0.2623,0.2156 -0.0062,0.1562 -0.0531,0.2842 -0.1405,0.3842 -0.0812,0.0937 -0.1999,0.1405 -0.3561,0.1405 -0.0812,0 -0.1718,-0.0218 -0.2718,-0.0656 -0.0937,-0.0499 -0.1874,-0.1093 -0.2811,-0.178 -0.2249,0.1874 -0.431,0.4092 -0.6185,0.6653 -0.1874,0.2562 -0.3654,0.5498 -0.5341,0.8809 l -0.1124,0.4873 c -0.0688,0.3248 -0.1344,0.6528 -0.1968,0.9839 -0.0563,0.3248 -0.1156,0.6528 -0.1781,0.9839 l -0.6278,0.075 z m 3.7257,-1.3681 c 0,0.2874 0.0499,0.4998 0.1499,0.6372 0.1062,0.1374 0.2436,0.2062 0.4123,0.2062 0.1624,0 0.3499,-0.0656 0.5623,-0.1968 0.2124,-0.1312 0.4716,-0.3655 0.7777,-0.7028 l 0.506,-2.3427 c -0.087,-0.05 -0.181,-0.0906 -0.281,-0.1219 -0.094,-0.0374 -0.1906,-0.0562 -0.2906,-0.0562 -0.1499,0 -0.3186,0.0469 -0.506,0.1406 -0.1811,0.0937 -0.3561,0.228 -0.5247,0.4029 -0.2249,0.2312 -0.4155,0.5248 -0.5717,0.8809 -0.1561,0.3561 -0.2342,0.7403 -0.2342,1.1526 z m 2.2492,1.4899 c -0.125,0 -0.238,-0.0437 -0.3376,-0.1311 -0.0999,-0.0875 -0.1499,-0.2249 -0.1499,-0.4124 0,-0.1811 0.0125,-0.3467 0.0375,-0.4966 -0.2687,0.3061 -0.5467,0.556 -0.834,0.7496 -0.2812,0.1937 -0.5498,0.2905 -0.8059,0.2905 -0.2249,0 -0.4311,-0.0874 -0.6185,-0.2623 -0.1812,-0.175 -0.2718,-0.4561 -0.2718,-0.8434 0,-0.3249 0.0594,-0.656 0.1781,-0.9933 0.1249,-0.3374 0.2874,-0.6591 0.4873,-0.9652 0.2061,-0.3124 0.4342,-0.5904 0.684,-0.834 0.2562,-0.2436 0.5154,-0.4342 0.7778,-0.5716 0.2686,-0.1437 0.5248,-0.2156 0.768,-0.2156 0.107,0 0.203,0.0219 0.291,0.0656 0.087,0.0438 0.169,0.1062 0.244,0.1875 l 0.431,-0.3468 0.168,0.0844 -0.749,3.3079 c -0.057,0.2311 -0.085,0.4092 -0.085,0.5341 0,0.0625 0.022,0.1124 0.066,0.1499 0.044,0.0375 0.097,0.0563 0.159,0.0563 0.119,0 0.259,-0.0625 0.422,-0.1875 0.169,-0.1249 0.334,-0.2873 0.497,-0.4872 l 0.224,0.178 c -0.118,0.1812 -0.262,0.3592 -0.431,0.5341 -0.168,0.175 -0.349,0.3218 -0.543,0.4405 -0.194,0.1124 -0.397,0.1686 -0.609,0.1686 z"
     fill="#ed1c24"
     id="path8" />
</svg>
