<svg width="192" height="131" viewBox="0 0 192 131" fill="none" xmlns="http://www.w3.org/2000/svg">
<g filter="url(#filter0_d_116_384)">
<rect x="41" y="36" width="110" height="49" rx="24.5" fill="white"/>
<rect x="40.75" y="35.75" width="110.5" height="49.5" rx="24.75" stroke="#B6ACAC" stroke-width="0.5"/>
<path d="M70.154 54.454L66.518 67H64.682L61.766 56.902L58.742 67L56.924 67.018L53.414 54.454H55.16L57.896 65.092L60.92 54.454H62.756L65.636 65.056L68.39 54.454H70.154ZM80.9465 61.69C80.9465 62.002 80.9285 62.332 80.8925 62.68H73.0085C73.0685 63.652 73.3985 64.414 73.9985 64.966C74.6105 65.506 75.3485 65.776 76.2125 65.776C76.9205 65.776 77.5085 65.614 77.9765 65.29C78.4565 64.954 78.7925 64.51 78.9845 63.958H80.7485C80.4845 64.906 79.9565 65.68 79.1645 66.28C78.3725 66.868 77.3885 67.162 76.2125 67.162C75.2765 67.162 74.4365 66.952 73.6925 66.532C72.9605 66.112 72.3845 65.518 71.9645 64.75C71.5445 63.97 71.3345 63.07 71.3345 62.05C71.3345 61.03 71.5385 60.136 71.9465 59.368C72.3545 58.6 72.9245 58.012 73.6565 57.604C74.4005 57.184 75.2525 56.974 76.2125 56.974C77.1485 56.974 77.9765 57.178 78.6965 57.586C79.4165 57.994 79.9685 58.558 80.3525 59.278C80.7485 59.986 80.9465 60.79 80.9465 61.69ZM79.2545 61.348C79.2545 60.724 79.1165 60.19 78.8405 59.746C78.5645 59.29 78.1865 58.948 77.7065 58.72C77.2385 58.48 76.7165 58.36 76.1405 58.36C75.3125 58.36 74.6045 58.624 74.0165 59.152C73.4405 59.68 73.1105 60.412 73.0265 61.348H79.2545ZM84.7467 53.68V67H83.1087V53.68H84.7467ZM86.9263 62.05C86.9263 61.03 87.1303 60.142 87.5383 59.386C87.9463 58.618 88.5103 58.024 89.2303 57.604C89.9623 57.184 90.7963 56.974 91.7323 56.974C92.9443 56.974 93.9403 57.268 94.7203 57.856C95.5123 58.444 96.0343 59.26 96.2863 60.304H94.5223C94.3543 59.704 94.0243 59.23 93.5323 58.882C93.0523 58.534 92.4523 58.36 91.7323 58.36C90.7963 58.36 90.0403 58.684 89.4643 59.332C88.8883 59.968 88.6003 60.874 88.6003 62.05C88.6003 63.238 88.8883 64.156 89.4643 64.804C90.0403 65.452 90.7963 65.776 91.7323 65.776C92.4523 65.776 93.0523 65.608 93.5323 65.272C94.0123 64.936 94.3423 64.456 94.5223 63.832H96.2863C96.0223 64.84 95.4943 65.65 94.7023 66.262C93.9103 66.862 92.9203 67.162 91.7323 67.162C90.7963 67.162 89.9623 66.952 89.2303 66.532C88.5103 66.112 87.9463 65.518 87.5383 64.75C87.1303 63.982 86.9263 63.082 86.9263 62.05ZM102.774 67.162C101.85 67.162 101.01 66.952 100.254 66.532C99.5099 66.112 98.9219 65.518 98.4899 64.75C98.0699 63.97 97.8599 63.07 97.8599 62.05C97.8599 61.042 98.0759 60.154 98.5079 59.386C98.9519 58.606 99.5519 58.012 100.308 57.604C101.064 57.184 101.91 56.974 102.846 56.974C103.782 56.974 104.628 57.184 105.384 57.604C106.14 58.012 106.734 58.6 107.166 59.368C107.61 60.136 107.832 61.03 107.832 62.05C107.832 63.07 107.604 63.97 107.148 64.75C106.704 65.518 106.098 66.112 105.33 66.532C104.562 66.952 103.71 67.162 102.774 67.162ZM102.774 65.722C103.362 65.722 103.914 65.584 104.43 65.308C104.946 65.032 105.36 64.618 105.672 64.066C105.996 63.514 106.158 62.842 106.158 62.05C106.158 61.258 106.002 60.586 105.69 60.034C105.378 59.482 104.97 59.074 104.466 58.81C103.962 58.534 103.416 58.396 102.828 58.396C102.228 58.396 101.676 58.534 101.172 58.81C100.68 59.074 100.284 59.482 99.9839 60.034C99.6839 60.586 99.5339 61.258 99.5339 62.05C99.5339 62.854 99.6779 63.532 99.9659 64.084C100.266 64.636 100.662 65.05 101.154 65.326C101.646 65.59 102.186 65.722 102.774 65.722ZM121.848 56.956C122.616 56.956 123.3 57.118 123.9 57.442C124.5 57.754 124.974 58.228 125.322 58.864C125.67 59.5 125.844 60.274 125.844 61.186V67H124.224V61.42C124.224 60.436 123.978 59.686 123.486 59.17C123.006 58.642 122.352 58.378 121.524 58.378C120.672 58.378 119.994 58.654 119.49 59.206C118.986 59.746 118.734 60.532 118.734 61.564V67H117.114V61.42C117.114 60.436 116.868 59.686 116.376 59.17C115.896 58.642 115.242 58.378 114.414 58.378C113.562 58.378 112.884 58.654 112.38 59.206C111.876 59.746 111.624 60.532 111.624 61.564V67H109.986V57.136H111.624V58.558C111.948 58.042 112.38 57.646 112.92 57.37C113.472 57.094 114.078 56.956 114.738 56.956C115.566 56.956 116.298 57.142 116.934 57.514C117.57 57.886 118.044 58.432 118.356 59.152C118.632 58.456 119.088 57.916 119.724 57.532C120.36 57.148 121.068 56.956 121.848 56.956ZM137.531 61.69C137.531 62.002 137.513 62.332 137.477 62.68H129.593C129.653 63.652 129.983 64.414 130.583 64.966C131.195 65.506 131.933 65.776 132.797 65.776C133.505 65.776 134.093 65.614 134.561 65.29C135.041 64.954 135.377 64.51 135.569 63.958H137.333C137.069 64.906 136.541 65.68 135.749 66.28C134.957 66.868 133.973 67.162 132.797 67.162C131.861 67.162 131.021 66.952 130.277 66.532C129.545 66.112 128.969 65.518 128.549 64.75C128.129 63.97 127.919 63.07 127.919 62.05C127.919 61.03 128.123 60.136 128.531 59.368C128.939 58.6 129.509 58.012 130.241 57.604C130.985 57.184 131.837 56.974 132.797 56.974C133.733 56.974 134.561 57.178 135.281 57.586C136.001 57.994 136.553 58.558 136.937 59.278C137.333 59.986 137.531 60.79 137.531 61.69ZM135.839 61.348C135.839 60.724 135.701 60.19 135.425 59.746C135.149 59.29 134.771 58.948 134.291 58.72C133.823 58.48 133.301 58.36 132.725 58.36C131.897 58.36 131.189 58.624 130.601 59.152C130.025 59.68 129.695 60.412 129.611 61.348H135.839Z" fill="black"/>
</g>
<g filter="url(#filter1_d_116_384)">
<path d="M130.61 99.5505L135.194 84.8132L123.36 85.9255L130.61 99.5505Z" fill="white"/>
<path d="M130.849 99.6248L130.671 100.197L130.389 99.668L123.139 86.043L122.963 85.7117L123.336 85.6766L135.171 84.5643L135.545 84.5291L135.433 84.8874L130.849 99.6248Z" stroke="#B6ACAC" stroke-width="0.5"/>
</g>
<defs>
<filter id="filter0_d_116_384" x="0.5" y="0.5" width="191" height="130" filterUnits="userSpaceOnUse" color-interpolation-filters="sRGB">
<feFlood flood-opacity="0" result="BackgroundImageFix"/>
<feColorMatrix in="SourceAlpha" type="matrix" values="0 0 0 0 0 0 0 0 0 0 0 0 0 0 0 0 0 0 127 0" result="hardAlpha"/>
<feOffset dy="5"/>
<feGaussianBlur stdDeviation="20"/>
<feComposite in2="hardAlpha" operator="out"/>
<feColorMatrix type="matrix" values="0 0 0 0 0 0 0 0 0 0 0 0 0 0 0 0 0 0 0.2 0"/>
<feBlend mode="normal" in2="BackgroundImageFix" result="effect1_dropShadow_116_384"/>
<feBlend mode="normal" in="SourceGraphic" in2="effect1_dropShadow_116_384" result="shape"/>
</filter>
<filter id="filter1_d_116_384" x="112.566" y="78.2451" width="33.3289" height="36.5981" filterUnits="userSpaceOnUse" color-interpolation-filters="sRGB">
<feFlood flood-opacity="0" result="BackgroundImageFix"/>
<feColorMatrix in="SourceAlpha" type="matrix" values="0 0 0 0 0 0 0 0 0 0 0 0 0 0 0 0 0 0 127 0" result="hardAlpha"/>
<feOffset dy="4"/>
<feGaussianBlur stdDeviation="5"/>
<feComposite in2="hardAlpha" operator="out"/>
<feColorMatrix type="matrix" values="0 0 0 0 0 0 0 0 0 0 0 0 0 0 0 0 0 0 0.2 0"/>
<feBlend mode="normal" in2="BackgroundImageFix" result="effect1_dropShadow_116_384"/>
<feBlend mode="normal" in="SourceGraphic" in2="effect1_dropShadow_116_384" result="shape"/>
</filter>
</defs>
</svg>
